<?xml version="1.0" encoding="UTF-8" standalone="no"?>
<svg
   xmlns:dc="http://purl.org/dc/elements/1.1/"
   xmlns:cc="http://creativecommons.org/ns#"
   xmlns:rdf="http://www.w3.org/1999/02/22-rdf-syntax-ns#"
   xmlns:svg="http://www.w3.org/2000/svg"
   xmlns="http://www.w3.org/2000/svg"
   version="1.1"
   id="svg2"
   viewBox="0 0 64.000001 64.000001"
   height="64"
   width="64">
  <defs
     id="defs4" />
  <metadata
     id="metadata7">
    <rdf:RDF>
      <cc:Work
         rdf:about="">
        <dc:format>image/svg+xml</dc:format>
        <dc:type
           rdf:resource="http://purl.org/dc/dcmitype/StillImage" />
        <dc:title></dc:title>
      </cc:Work>
    </rdf:RDF>
  </metadata>
  <g
     transform="translate(0,-988.36216)"
     id="layer1">
    <path
       id="rect4145"
       transform="translate(0,988.36216)"
       d="M 0 0 L 0 64 L 64 64 L 64 0 L 0 0 z M 32 10.8125 A 12.51412 14.730906 0 0 1 44.513672 25.542969 A 12.51412 14.730906 0 0 1 32 40.273438 A 12.51412 14.730906 0 0 1 19.486328 25.542969 A 12.51412 14.730906 0 0 1 32 10.8125 z M 32 45.488281 C 48.208732 45.488281 60.716802 52.7288 60.716797 61.125 L 3.2832031 61.125 C 3.2831984 52.7288 15.791268 45.488281 32 45.488281 z "
       style="fill:#ffffff;fill-opacity:1;stroke:none;stroke-width:6;stroke-miterlimit:4;stroke-dasharray:none;stroke-opacity:1" />
  </g>
</svg>
